<svg width="44" height="32" viewBox="0 0 44 32" fill="none" xmlns="http://www.w3.org/2000/svg">
<path fill-rule="evenodd" clip-rule="evenodd" d="M21.7506 29.847C19.5005 31.1481 16.8088 31.9213 13.941 31.9213C8.07303 31.9213 2.93331 28.7222 0.153714 23.9786C0.153714 23.9568 0.132185 23.9568 0.132185 23.9346C0.132185 23.9126 0.109498 23.9126 0.109498 23.8906L2.35966 22.7218L4.60982 21.574C4.63228 21.5971 4.65496 21.618 4.67649 21.6631C6.59561 24.7731 10.0371 26.8473 13.941 26.8473C15.1992 26.8473 16.4123 26.6269 17.4934 26.2732C15.0886 23.516 13.6327 19.8984 13.6327 15.9491C13.6327 12.0229 15.0671 8.40523 17.4494 5.62494C16.3683 5.25038 15.1768 5.05198 13.941 5.05198C10.0813 5.05198 6.50741 7.12528 4.54408 10.4565C4.52162 10.4785 4.52162 10.5017 4.52162 10.5225L0 8.18485C0.0215293 8.14086 0.0439845 8.09688 0.0655139 8.07373C2.82381 3.24306 8.02905 0 13.941 0C16.8088 0 19.5007 0.772278 21.7506 2.09622C24.0008 0.772046 26.6924 0 29.5593 0C35.4715 0 40.6777 3.24329 43.4351 8.07373C43.4571 8.09688 43.479 8.14086 43.501 8.18485L38.979 10.5225C38.979 10.5017 38.979 10.4785 38.957 10.4565C36.9939 7.12528 33.4202 5.05198 29.5593 5.05198C28.3247 5.05198 27.1332 5.25038 26.0521 5.62494C28.4342 8.40523 29.8688 12.0229 29.8688 15.9491C29.8688 19.8984 28.4127 23.516 26.0079 26.2734C27.089 26.6269 28.302 26.8473 29.5593 26.8473C33.4642 26.8473 36.9057 24.7731 38.8248 21.6631C38.8468 21.618 38.8688 21.5969 38.8908 21.574L41.1405 22.7218L43.3908 23.8906C43.3908 23.9126 43.3689 23.9126 43.3689 23.9346C43.3689 23.9568 43.3469 23.9568 43.3469 23.9786C40.5675 28.7222 35.4273 31.9213 29.5593 31.9213C26.6924 31.9213 24.0008 31.1481 21.7509 29.847H21.7506ZM21.7506 23.516C19.897 21.5529 18.7064 18.8838 18.7064 15.9491C18.7064 13.0595 19.8315 10.4345 21.7506 8.47144C23.6698 10.4345 24.7948 13.0597 24.7948 15.9491C24.7948 18.8838 23.6031 21.5529 21.7506 23.516Z" fill="white"/>
</svg>
