<svg width="39" height="28" viewBox="0 0 39 28" fill="none" xmlns="http://www.w3.org/2000/svg">
<path fill-rule="evenodd" clip-rule="evenodd" d="M39 13.5104C39 20.9695 32.9487 27.0208 25.4896 27.0208C23.3407 27.0208 21.3155 26.5271 19.4878 25.6129C17.6845 26.5024 15.6346 27.0208 13.5108 27.0208C6.05127 27.0208 0 20.9695 0 13.5104C0 6.05127 6.05127 0 13.5104 0C15.6593 0 17.6845 0.494026 19.4875 1.38313C21.2908 0.494026 23.3407 0 25.4896 0C32.9487 0 39 6.05127 39 13.5104ZM36.3327 13.5104C36.3327 7.53334 31.4667 2.66766 25.4896 2.66766C24.3535 2.66766 23.2421 2.84047 22.2293 3.16169C24.304 4.89042 25.8108 7.21212 26.5515 9.87978H23.7605C22.9766 7.65284 21.4844 5.74415 19.5126 4.44587C17.5612 5.73004 16.0791 7.63229 15.289 9.87978H12.498C13.2289 7.24913 14.735 4.89952 16.8201 3.13695C15.756 2.80892 14.6487 2.6424 13.5351 2.64293C7.55808 2.64293 2.6924 7.50861 2.6924 13.4857C2.6924 19.4627 7.55808 24.3288 13.5351 24.3288C14.6712 24.3288 15.7579 24.156 16.7707 23.8347C14.0786 21.5872 12.3252 18.2775 12.0534 14.5727H18.475V17.2152L15.3381 17.2647C16.1533 19.4383 17.6107 21.2664 19.5126 22.5258C21.4141 21.266 22.8714 19.4383 23.6867 17.2647L20.5497 17.2152V14.5727H26.9717C26.6752 18.2775 24.897 21.5625 22.2046 23.81C23.2421 24.1312 24.3535 24.3288 25.4896 24.3288C31.4914 24.3535 36.3327 19.5122 36.3327 13.5104Z" fill="white"/>
</svg>
